<svg width="329" height="295" viewBox="0 0 329 295" fill="none" xmlns="http://www.w3.org/2000/svg">
<path d="M77 8H112C122.493 8 131 16.5066 131 27V113C131 132.33 146.67 148 166 148H302C312.493 148 321 156.507 321 167V218C321 256.108 290.108 287 252 287H77C38.8923 287 8 256.108 8 218V77C8 38.8924 38.8924 8 77 8ZM301 121H178C166.954 121 158 112.046 158 101V28C158 16.9543 166.954 8 178 8H252C290.108 8 321 38.8923 321 77V101C321 112.046 312.046 121 301 121Z" stroke="black" stroke-width="16"/>
</svg>
